# xmcd
#
# Track frame offsets: 
#        150
#        19455
#        44199
#        62276
#        80371
#        99790
#        124883
#        142531
#        155051
#        168051
#        188539
#        205564
#        221639
#        234026
#        248964
#        270014
#        280814
#
# Disc length: 3954 seconds
#
# Revision: 0
# Processed by: cddbd v1.5.2PL0 Copyright (c) Steve Scherf et al.
# Submitted via: ExactAudioCopy v0.99pb5
#
DISCID=d40f7011
DTITLE=Various Artist - Blues Masters
DYEAR=1992
DGENRE=Blues
TTITLE0=Mike Bloomfield/Al Kooper - Stop
TTITLE1=Mike Bloomfield/Al Kooper - Really
TTITLE2=Mike Bloomfield/Al Kooper - The Weight
TTITLE3=Albert King - Breaking Up Somebody's Home
TTITLE4=Albert King - Can't You See What You're Doing To Me
TTITLE5=Albert King - I Get Evil
TTITLE6=Albert King - Olease Love Me
TTITLE7=John Mayall - Vacation
TTITLE8=John Mayall - Walking On Sunset
TTITLE9=John Mayall - Laurel Canyon Home
TTITLE10=John Mayall - 2401
TTITLE11=John Mayall - Ready To Ride
TTITLE12=John Mayall - Medicine Man
TTITLE13=John Mayall - Somebody's Acting Like A Child
TTITLE14=John Mayall - The BEar
TTITLE15=John Mayall - Miss James
TTITLE16=John Mayall - Long Gone Midnight
EXTD=
EXTT0=
EXTT1=
EXTT2=
EXTT3=
EXTT4=
EXTT5=
EXTT6=
EXTT7=
EXTT8=
EXTT9=
EXTT10=
EXTT11=
EXTT12=
EXTT13=
EXTT14=
EXTT15=
EXTT16=
PLAYORDER=
